<svg xmlns="http://www.w3.org/2000/svg" viewBox="0 0 200 200" width="200" height="200" role="img" aria-label="개미와 베짱이">
  <rect width="200" height="200" rx="28" fill="#FFF1E8"/>
  <!-- 해 -->
  <circle cx="158" cy="44" r="18" fill="#FFC080"/>
  <g stroke="#FFC080" stroke-width="3" stroke-linecap="round">
    <line x1="158" y1="16" x2="158" y2="22"/>
    <line x1="180" y1="22" x2="176" y2="27"/>
    <line x1="186" y1="44" x2="180" y2="44"/>
  </g>
  <!-- 땅 -->
  <rect x="0" y="156" width="200" height="44" rx="28" fill="#CFE0B0"/>
  <!-- 밀알(곡식) -->
  <g transform="translate(60 70) rotate(-12)">
    <ellipse cx="0" cy="0" rx="22" ry="30" fill="#F2C14E"/>
    <path d="M0 -30v60M0 -22c8 4 8 12 0 16M0 -22c-8 4-8 12 0 16M0 -6c8 4 8 12 0 16M0 -6c-8 4-8 12 0 16" stroke="#D8A436" stroke-width="2.5" fill="none"/>
  </g>
  <!-- 개미 -->
  <g transform="translate(108 120)">
    <!-- 다리 -->
    <g stroke="#3a2a1a" stroke-width="3" stroke-linecap="round">
      <line x1="-14" y1="6" x2="-26" y2="20"/>
      <line x1="-6" y1="8" x2="-12" y2="24"/>
      <line x1="4" y1="8" x2="2" y2="24"/>
    </g>
    <!-- 몸 마디 -->
    <circle cx="-22" cy="-4" r="13" fill="#5A3A22"/>
    <circle cx="-2" cy="0" r="11" fill="#6B4326"/>
    <ellipse cx="20" cy="2" rx="18" ry="14" fill="#5A3A22"/>
    <!-- 더듬이 -->
    <path d="M-30 -12c-6-8-14-8-16-2" stroke="#3a2a1a" stroke-width="2.5" fill="none" stroke-linecap="round"/>
    <path d="M-26 -14c-2-9-9-11-14-7" stroke="#3a2a1a" stroke-width="2.5" fill="none" stroke-linecap="round"/>
    <!-- 눈 -->
    <circle cx="-26" cy="-6" r="3.4" fill="#fff"/>
    <circle cx="-25" cy="-6" r="1.7" fill="#1a1109"/>
  </g>
</svg>
