<svg xmlns="http://www.w3.org/2000/svg" viewBox="0 0 200 200" width="200" height="200" role="img" aria-label="황금알을 낳는 거위">
  <rect width="200" height="200" rx="28" fill="#FFF1E8"/>
  <!-- 둥지 -->
  <ellipse cx="100" cy="158" rx="72" ry="26" fill="#C99A5B"/>
  <ellipse cx="100" cy="152" rx="58" ry="18" fill="#E0B878"/>
  <!-- 거위 몸통 -->
  <path d="M62 138c-18-10-22-44 4-58 24-13 52-2 58 22 5 20-6 38-26 42-16 3-26 0-36-6z" fill="#FFFFFF"/>
  <ellipse cx="78" cy="120" rx="36" ry="32" fill="#FFFFFF"/>
  <!-- 날개 -->
  <path d="M84 110c20-10 38-6 44 8 4 12-6 22-20 20-12-2-22-12-24-28z" fill="#F2F0EA"/>
  <!-- 목 -->
  <path d="M64 110c-14-6-22-26-14-42 6-12 20-12 24 0 4 12-2 24-10 30z" fill="#FFFFFF"/>
  <!-- 머리 -->
  <circle cx="62" cy="62" r="16" fill="#FFFFFF"/>
  <!-- 부리 -->
  <path d="M48 60c-12 0-16 4-16 8s6 6 16 4z" fill="#FF6F0F"/>
  <!-- 눈 -->
  <circle cx="60" cy="58" r="3.6" fill="#1f1710"/>
  <circle cx="61.2" cy="56.8" r="1.3" fill="#fff"/>
  <!-- 황금알 -->
  <g transform="translate(116 150)">
    <ellipse cx="0" cy="0" rx="20" ry="25" fill="#F2C14E"/>
    <ellipse cx="0" cy="0" rx="20" ry="25" fill="none" stroke="#D8A436" stroke-width="2"/>
    <path d="M-7 -10c4-4 10-2 11 3" stroke="#FBE9B8" stroke-width="3" fill="none" stroke-linecap="round"/>
    <!-- 반짝 -->
    <path d="M22 -20l3 6 6 3-6 3-3 6-3-6-6-3 6-3z" fill="#FFE08A"/>
  </g>
</svg>
